<?xml version="1.0" encoding="utf-8"?>
<!-- Generator: Adobe Illustrator 21.0.0, SVG Export Plug-In . SVG Version: 6.00 Build 0)  -->
<svg version="1.1" id="Layer_1" xmlns="http://www.w3.org/2000/svg" xmlns:xlink="http://www.w3.org/1999/xlink" x="0px" y="0px"
	 viewBox="0 0 100 87.7" style="enable-background:new 0 0 100 87.7;" xml:space="preserve">
<g>
	<path d="M91.5,45.1c10.1-10.1,10.1-26.5,0-36.5l0,0C81.4-1.5,65-1.5,54.9,8.6l-4.9,5l-4.9-4.9C35-1.5,18.6-1.5,8.6,8.6
		C3.7,13.5,1.1,20,1.1,26.9s2.7,13.4,7.5,18.3L50,86.6L91.5,45.1z M7.5,26.9c0-5.2,2-10,5.7-13.6c3.8-3.8,8.7-5.7,13.6-5.7
		s9.8,1.9,13.6,5.7l9.6,9.5l9.6-9.6c7.5-7.5,19.8-7.5,27.2,0c3.6,3.6,5.7,8.4,5.7,13.6s-2,10-5.7,13.6L50,77.3L13.2,40.5
		C9.6,36.8,7.5,32,7.5,26.9z"/>
</g>
</svg>
